<?xml version="1.0" standalone="no"?>
<!DOCTYPE svg PUBLIC "-//W3C//DTD SVG 1.1//EN" "http://www.w3.org/Graphics/SVG/1.1/DTD/svg11.dtd" >
<svg>
<metadata>
Created by FontForge 20090914 at Thu Feb 23 17:59:35 2012
 By ffonts
Copyright (c) 2001, 2002 MondayRec Media
</metadata>
<defs>
<font id="Finder" horiz-adv-x="1399" >
  <font-face 
    font-family="Finder"
    font-weight="400"
    font-stretch="normal"
    units-per-em="4096"
    panose-1="2 0 0 0 0 0 0 0 0 0"
    ascent="3276"
    descent="-820"
    x-height="1500"
    cap-height="1500"
    bbox="-250 -500 2560 2560"
    underline-thickness="68"
    underline-position="-65"
    unicode-range="U+0020-U+2212"
  />
<missing-glyph horiz-adv-x="3072" 
d="M512 0v2560h2048v-2560h-2048zM2494 66v2428h-1916v-2428h1916z" />
    <glyph glyph-name=".notdef" unicode="&#xb7;" horiz-adv-x="3072" 
d="M512 0v2560h2048v-2560h-2048zM2494 66v2428h-1916v-2428h1916z" />
    <glyph glyph-name=".null" horiz-adv-x="0" 
 />
    <glyph glyph-name="nonmarkingreturn" horiz-adv-x="0" 
 />
    <glyph glyph-name="space" unicode=" " horiz-adv-x="1024" 
 />
    <glyph glyph-name="exclam" unicode="!" horiz-adv-x="500" 
d="M0 200v-100q0 -100 100 -100h100q100 0 100 100v100q0 100 -100 100h-100q-100 0 -100 -100zM0 1800v-1100q0 -100 100 -100h100q100 0 100 100v1100q0 100 -100 100h-100q-100 0 -100 -100z" />
    <glyph glyph-name="quotedbl" unicode="&#x22;" horiz-adv-x="900" 
d="M0 1700v-450t100 -50q200 0 200 400v100q0 100 -100 100h-100q-100 0 -100 -100zM400 1700v-450t100 -50q200 0 200 400v100q0 100 -100 100h-100q-100 0 -100 -100z" />
    <glyph glyph-name="ampersand" unicode="&#x26;" horiz-adv-x="2000" 
d="M900 900q600 0 600 -300v-300q0 -300 -600 -300t-600 500q0 250 100 300q-100 0 -100 250v650q0 100 100 100h440q100 0 100 -100q-440 -700 -140 -800h100zM600 500q0 -200 300 -200t300 100v100q0 100 -300 100h-200q-100 0 -100 -100z" />
    <glyph glyph-name="quoteright" unicode="&#x2019;" horiz-adv-x="499" 
d="M0 1700v-450t100 -50q200 0 200 400v100q0 100 -100 100h-100q-100 0 -100 -100z" />
    <glyph glyph-name="parenleft" unicode="(" horiz-adv-x="700" 
d="M300 -400q-100 0 -120 150q-180 1000 0 2000q20 150 120 150h100q100 0 100 -100q-200 -1050 0 -2100q0 -100 -100 -100h-100z" />
    <glyph glyph-name="parenright" unicode=")" horiz-adv-x="700" 
d="M290 -400q100 0 120 150q180 1000 0 2000q-20 150 -120 150h-100q-100 0 -100 -100q200 -1050 0 -2100q0 -100 100 -100h100z" />
    <glyph glyph-name="asterisk" unicode="*" horiz-adv-x="1350" 
d="M1019 1712q99 18 116 -81l17 -98q18 -99 -81 -116l-445 -79q-122 131 -50 296zM510 1346q65 168 245 174l259 -371q57 -81 -25 -139l-82 -57q-82 -57 -139 24zM430 1900q0 100 100 100h100q100 0 100 -100v-452q-150 -98 -300 2v450zM418 1518q180 -4 247 -171l-259 -370
q-58 -82 -140 -24l-82 57q-81 57 -24 139zM93 1416q-99 18 -82 116l18 99q17 98 116 81l445 -79q70 -164 -54 -295z" />
    <glyph glyph-name="plus" unicode="+" horiz-adv-x="1400" 
d="M1200 701q0 -100 -100 -100h-1000q-100 0 -100 100v100q0 100 100 100h1000q100 0 100 -100v-100zM649 1350q100 0 100 -100v-1000q0 -100 -100 -100h-100q-100 0 -100 100v1000q0 100 100 100h100z" />
    <glyph glyph-name="comma" unicode="," horiz-adv-x="499" 
d="M0 200v-450t100 -50q200 0 200 400v100q0 100 -100 100h-100q-100 0 -100 -100z" />
    <glyph glyph-name="hyphen" unicode="-" horiz-adv-x="1400" 
d="M1200 701q0 -100 -100 -100h-1000q-100 0 -100 100v100q0 100 100 100h1000q100 0 100 -100v-100z" />
    <glyph glyph-name="period" unicode="." horiz-adv-x="499" 
d="M0 200v-100q0 -100 100 -100h100q100 0 100 100v100q0 100 -100 100h-100q-100 0 -100 -100z" />
    <glyph glyph-name="slash" unicode="/" horiz-adv-x="1200" 
d="M162 -292q94 -34 128 60l752 2067q34 94 -60 129l-94 34q-94 34 -128 -60l-752 -2067q-34 -94 60 -129z" />
    <glyph glyph-name="zero" unicode="0" horiz-adv-x="1400" 
d="M0 300q0 -300 600 -300t600 300v1300q0 300 -600 300t-600 -300v-1300zM300 400v1100q0 90 300 100q300 0 300 -100v-1100q0 -100 -300 -100t-300 100z" />
    <glyph glyph-name="one" unicode="1" horiz-adv-x="800" 
d="M400 0q-100 0 -100 100v1700q0 100 100 100h100q100 0 100 -100v-1700q0 -100 -100 -100h-100zM300 1500q0 100 -100 100h-151t-50 100q0 200 400 200h100q100 0 100 -100v-100q0 -100 -299 -200z" />
    <glyph glyph-name="two" unicode="2" horiz-adv-x="1400" 
d="M1100 0h-900q-200 0 -200 200v240q0 210 450 535t450 425q0 180 -300 200h-500q-100 0 -100 100v100q0 100 100 100h500q600 0 600 -500v-50q0 -200 -450 -525t-450 -425t100 -100h700q100 0 100 -100v-100q0 -100 -100 -100z" />
    <glyph glyph-name="three" unicode="3" horiz-adv-x="1400" 
d="M100 0h500q600 0 600 300v1300q0 300 -600 300h-500q-100 0 -100 -100v-100q0 -100 100 -100h500q300 0 300 -100v-300q0 -100 -100 -100h-200q-100 0 -100 -100v-100q0 -100 100 -100h200q100 0 100 -100v-300q0 -100 -300 -100h-500q-100 0 -100 -100v-100
q0 -100 100 -100z" />
    <glyph glyph-name="four" unicode="4" horiz-adv-x="1400" 
d="M0 1798v-1198q0 -300 600 -300h200q100 0 100 -200q0 -100 100 -100h100q100 0 100 100v1700q0 100 -100 100h-100q-100 0 -100 -100v-1100q0 -100 -100 -100h-200q-300 0 -300 100v1100q0 100 -110 100h-90q-100 0 -100 -102z" />
    <glyph glyph-name="five" unicode="5" horiz-adv-x="1400" 
d="M1100 1900h-900q-200 0 -200 -200v-240q0 -210 450 -535t450 -425q0 -180 -300 -200h-500q-100 0 -100 -100v-100q0 -100 100 -100h500q600 0 600 500v50q0 200 -450 525t-450 425t100 100h700q100 0 100 100v100q0 100 -100 100z" />
    <glyph glyph-name="six" unicode="6" horiz-adv-x="1400" 
d="M600 1900q-600 0 -600 -300v-1300q0 -300 600 -300t600 300v500q0 300 -600 300h-200q-100 0 -100 100v300q0 100 300 100t300 -100t100 -100h100q100 0 100 100v100q0 300 -600 300zM900 700v-300q0 -100 -300 -100t-300 100v300q0 100 100 100h200q300 0 300 -100z" />
    <glyph glyph-name="seven" unicode="7" horiz-adv-x="1400" 
d="M1000 0q-100 0 -100 100v1700q0 100 100 100h100q100 0 100 -100v-1700q0 -100 -100 -100h-100zM900 1500q0 100 -100 100h-751t-50 100q0 200 400 200h700q100 0 100 -100v-100q0 -100 -299 -200zM700 1100h170q100 0 100 -100v-100q0 -100 -100 -100h-170
q-100 0 -100 100v100q0 100 100 100z" />
    <glyph glyph-name="eight" unicode="8" horiz-adv-x="1402" 
d="M600 0q600 0 600 300v400q0 250 -150 250q150 0 150 250v400q0 300 -600 300t-600 -300v-400q0 -250 150 -250l550 -150q200 0 200 -150v-200q0 -150 -200 -150h-200q-200 0 -200 150v200q0 150 200 150h400l-700 150q-200 0 -200 -250v-400q0 -300 600 -300zM300 1250
v200q0 150 200 150h200q200 0 200 -150v-200q0 -150 -200 -150h-200q-200 0 -200 150z" />
    <glyph glyph-name="nine" unicode="9" horiz-adv-x="1400" 
d="M600 0q600 0 600 300v1300q0 300 -600 300t-600 -300v-500q0 -300 600 -300h200q100 0 100 -100v-300q0 -100 -300 -100t-300 100t-100 100h-100q-100 0 -100 -100v-100q0 -300 600 -300zM300 1200v300q0 100 300 100t300 -100v-300q0 -100 -100 -100h-200
q-300 0 -300 100z" />
    <glyph glyph-name="colon" unicode=":" horiz-adv-x="499" 
d="M0 200v-100q0 -100 100 -100h100q100 0 100 100v100q0 100 -100 100h-100q-100 0 -100 -100zM0 800v-100q0 -100 100 -100h100q100 0 100 100v100q0 100 -100 100h-100q-100 0 -100 -100z" />
    <glyph glyph-name="semicolon" unicode=";" horiz-adv-x="499" 
d="M0 800v-100q0 -100 100 -100h100q100 0 100 100v100q0 100 -100 100h-100q-100 0 -100 -100zM0 200v-450t100 -50q200 0 200 400v100q0 100 -100 100h-100q-100 0 -100 -100z" />
    <glyph glyph-name="less" unicode="&#x3c;" horiz-adv-x="1200" 
d="M955 1454q71 -71 0 -142l-707 -707q-71 -71 -142 0l-70 71q-71 71 0 141l707 707q70 71 141 0zM888 -31q-71 -71 -142 0l-707 707q-71 71 0 142l71 70q71 71 141 0l707 -707q71 -70 0 -141z" />
    <glyph glyph-name="equal" unicode="=" horiz-adv-x="1400" 
d="M1200 501q0 -100 -100 -100h-1000q-100 0 -100 100v100q0 100 100 100h1000q100 0 100 -100v-100zM1200 901q0 -100 -100 -100h-1000q-100 0 -100 100v100q0 100 100 100h1000q100 0 100 -100v-100z" />
    <glyph glyph-name="greater" unicode="&#x3e;" horiz-adv-x="1200" 
d="M37 1454q-71 -71 0 -142l707 -707q71 -71 142 0l70 71q71 71 0 141l-707 707q-70 71 -141 0zM104 -31q71 -71 142 0l707 707q71 71 0 142l-71 70q-71 71 -141 0l-707 -707q-71 -70 0 -141z" />
    <glyph glyph-name="question" unicode="?" horiz-adv-x="1528" 
d="M0 1600q0 300 600 300t600 -300v-300q0 -300 -600 -300q-300 0 -300 -100v-100q0 -100 300 -100t300 100t100 100h100q100 0 100 -100v-100q0 -300 -600 -300t-600 300v300q0 300 600 300q300 0 300 100v100q0 100 -300 100t-300 -100t-100 -100h-100q-100 0 -100 100
v100zM450 200v-100q0 -100 100 -100h100q100 0 100 100v100q0 100 -100 100h-100q-100 0 -100 -100z" />
    <glyph glyph-name="at" unicode="@" horiz-adv-x="2599" 
d="M1400 0h-500q-600 0 -600 300v300q0 300 600 300h200q100 0 100 100v100q0 100 -200 100h-500q-100 0 -100 100v100q0 100 100 100h400q600 0 600 -300v-1100q0 -100 -100 -100zM900 600q-300 0 -300 -100v-100q0 -100 300 -100h200q100 0 100 100v100q0 100 -100 100
h-200zM1400 300q300 0 300 800q0 600 -800 600t-800 -950t800 -950h500q100 0 100 -100v-100q0 -100 -100 -100h-500q-1100 0 -1100 1250t1100 1250t1100 -900q0 -1100 -600 -1100v300z" />
    <glyph glyph-name="A" unicode="A" 
d="M100 0q-100 0 -100 100v800q0 600 300 600h600q300 0 300 -600v-800q0 -100 -100 -100h-100q-100 0 -100 100v400q0 100 -100 100h-400q-100 0 -100 -100v-400q0 -100 -100 -100h-100zM900 900q0 300 -100 300h-400q-100 0 -100 -300h600z" />
    <glyph glyph-name="B" unicode="B" 
d="M0 100q0 -100 100 -100h500q600 0 600 300v900q0 300 -600 300h-500q-100 0 -100 -100v-1300zM400 300q-100 0 -100 100v100q0 100 100 100h400q100 0 100 -100v-100q0 -100 -300 -100h-200zM600 1200q300 0 300 -100v-100q0 -100 -100 -100h-400q-100 0 -100 100v100
q0 100 100 100h200z" />
    <glyph glyph-name="C" unicode="C" 
d="M1100 0h-500q-600 0 -600 300v900q0 300 600 300h500q100 0 100 -100v-100q0 -100 -100 -100h-500q-300 0 -300 -100v-700q0 -100 300 -100h500q100 0 100 -100v-100q0 -100 -100 -100z" />
    <glyph glyph-name="D" unicode="D" 
d="M0 100q0 -100 100 -100h500q600 0 600 300v900q0 300 -600 300h-500q-100 0 -100 -100v-1300zM400 300q-100 0 -100 100v690q0 100 100 100h200q300 0 300 -100v-690q0 -100 -300 -100h-200z" />
    <glyph glyph-name="E" unicode="E" 
d="M1100 0h-500q-600 0 -600 300v900q0 300 600 300h500q100 0 100 -100v-100q0 -100 -100 -100h-500q-300 0 -300 -100v-100q0 -100 100 -100h200q100 0 100 -100v-100q0 -100 -100 -100h-200q-100 0 -100 -100v-100q0 -100 300 -100h500q100 0 100 -100v-100
q0 -100 -100 -100z" />
    <glyph glyph-name="F" unicode="F" 
d="M200 0h-100q-100 0 -100 100v1100q0 300 600 300h500q100 0 100 -100v-100q0 -100 -100 -100h-500q-300 0 -300 -100v-100q0 -100 100 -100h200q100 0 100 -100v-100q0 -100 -100 -100h-200q-100 0 -100 -100v-400q0 -100 -100 -100z" />
    <glyph glyph-name="G" unicode="G" 
d="M600 1500q-600 0 -600 -300v-900q0 -300 600 -300t600 300v500q0 100 -100 100h-400q-100 0 -100 -100v-100q0 -100 100 -100h100q100 0 100 -100v-100q0 -100 -300 -100t-300 100v700q0 100 300 100h500q100 0 100 100v100q0 100 -100 100h-500z" />
    <glyph glyph-name="H" unicode="H" 
d="M100 0q-100 0 -100 100v1300q0 100 100 100h100q100 0 100 -100v-400q0 -100 100 -100h400q100 0 100 100v400q0 100 100 100h100q100 0 100 -100v-1300q0 -100 -100 -100h-100q-100 0 -100 100v400q0 100 -100 100h-400q-100 0 -100 -100v-400q0 -100 -100 -100h-100z
" />
    <glyph glyph-name="I" unicode="I" horiz-adv-x="499" 
d="M100 0q-100 0 -100 100v1300q0 100 100 100h100q100 0 100 -100v-1300q0 -100 -100 -100h-100z" />
    <glyph glyph-name="J" unicode="J" horiz-adv-x="499" 
d="M100 -300q-100 0 -100 100v1600q0 100 100 100h100q100 0 100 -100v-1600q0 -100 -100 -100h-100z" />
    <glyph glyph-name="K" unicode="K" 
d="M100 0q-100 0 -100 100v1300q0 100 100 100h100q100 0 100 -100v-400q0 -100 100 -100h400q100 0 100 300v200q0 100 100 100h100q100 0 100 -100v-325q0 -275 -150 -325q150 -50 150 -325v-325q0 -100 -100 -100h-100q-100 0 -100 100v200q0 300 -100 300h-400
q-100 0 -100 -100v-400q0 -100 -100 -100h-100z" />
    <glyph glyph-name="L" unicode="L" horiz-adv-x="1099" 
d="M200 1500h-100q-100 0 -100 -100v-1100q0 -300 600 -300h200q100 0 100 100v100q0 100 -100 100h-200q-300 0 -300 100v1000q0 100 -100 100z" />
    <glyph glyph-name="M" unicode="M" horiz-adv-x="2300" 
d="M2100 100v800q0 600 -300 600h-600q-150 0 -150 -100q0 100 -300 100h-650q-100 0 -100 -100v-1300q0 -100 100 -100h100q100 0 100 100v1000q0 100 100 100h400q100 0 100 -300v-800q0 -100 100 -100h100q100 0 100 100v800q0 300 100 300h400q100 0 100 -300v-800
q0 -100 100 -100h100q100 0 100 100z" />
    <glyph glyph-name="N" unicode="N" 
d="M100 0q-100 0 -100 100v1300q0 100 100 100h500q600 0 600 -300v-1100q0 -100 -100 -100h-100q-100 0 -100 100v1000q0 100 -300 100h-200q-100 0 -100 -100v-1000q0 -100 -100 -100h-100z" />
    <glyph glyph-name="O" unicode="O" 
d="M0 300q0 -300 600 -300t600 300v900q0 300 -600 300t-600 -300v-900zM300 400v700q0 90 300 100q300 0 300 -100v-700q0 -100 -300 -100t-300 100z" />
    <glyph glyph-name="P" unicode="P" 
d="M100 0q-100 0 -100 100v1300q0 100 100 100h500q600 0 600 -300v-300q0 -300 -600 -300h-200q-100 0 -100 -100v-400q0 -100 -100 -100h-100zM900 1000v100q0 100 -300 100h-200q-100 0 -100 -100v-100q0 -100 100 -100h200q300 0 300 100z" />
    <glyph glyph-name="Q" unicode="Q" 
d="M0 300q0 -300 600 -300t600 300v900q0 300 -600 300t-600 -300v-900zM300 400v690q0 100 300 110q300 0 300 -100v-700q0 -100 -300 -100t-300 100zM450 300v-500q0 -100 100 -100h100q100 0 100 100v500q0 100 -100 100h-100q-100 0 -100 -100z" />
    <glyph glyph-name="R" unicode="R" 
d="M100 0q-100 0 -100 100v1300q0 100 100 100h500q600 0 600 -500q0 -250 -100 -300q100 0 100 -600q0 -100 -100 -100h-100q-100 0 -100 100q0 500 -200 500h-300q-100 0 -100 -100v-400q0 -100 -100 -100h-100zM900 1000q0 200 -300 200h-200q-100 0 -100 -100v-100
q0 -100 100 -100h400q100 0 100 100z" />
    <glyph glyph-name="S" unicode="S" horiz-adv-x="1499" 
d="M0 300q0 -300 600 -300t600 300v300q0 300 -600 300q-300 0 -300 100v100q0 100 300 100t300 -100t100 -100h100q100 0 100 100v100q0 300 -600 300t-600 -300v-300q0 -300 600 -300q300 0 300 -100v-100q0 -100 -300 -100t-300 100t-100 100h-100q-100 0 -100 -100v-100
z" />
    <glyph glyph-name="T" unicode="T" horiz-adv-x="1699" 
d="M0 1400v-100q0 -100 100 -100h400q100 0 100 -100v-1000q0 -100 100 -100h100q100 0 100 100v1000q0 100 100 100h400q100 0 100 100v100q0 100 -100 100h-1300q-100 0 -100 -100z" />
    <glyph glyph-name="U" unicode="U" 
d="M0 1400v-1100q0 -300 600 -300t600 300v1100q0 100 -100 100h-100q-100 0 -100 -100v-1000q0 -100 -300 -100t-300 100v1000q0 100 -100 100h-100q-100 0 -100 -100z" />
    <glyph glyph-name="V" unicode="V" 
d="M0 1400v-700q0 -700 600 -700t600 700v700q0 100 -100 100h-100q-100 0 -100 -100v-500q0 -600 -300 -600t-300 600v500q0 100 -100 100h-100q-100 0 -100 -100z" />
    <glyph glyph-name="W" unicode="W" horiz-adv-x="2300" 
d="M2100 1400v-800q0 -600 -300 -600h-600q-150 0 -150 100q0 -100 -150 -100h-600q-300 0 -300 600v800q0 100 100 100h100q100 0 100 -100v-1000q0 -100 100 -100h400q100 0 100 300v800q0 100 100 100h100q100 0 100 -100v-800q0 -300 100 -300h400q100 0 100 300v800
q0 100 100 100h100q100 0 100 -100z" />
    <glyph glyph-name="X" unicode="X" 
d="M0 200v-100q0 -100 100 -100h100q100 0 100 100q0 500 200 500h200q200 0 200 -500q0 -100 100 -100h100q100 0 100 100v200q0 400 -150 450q150 50 150 450v200q0 100 -100 100h-100q-100 0 -100 -100q0 -500 -200 -500h-200q-200 0 -200 500q0 100 -100 100h-100
q-100 0 -100 -100v-200q0 -400 150 -447q-150 -53 -150 -353v-200z" />
    <glyph glyph-name="Y" unicode="Y" 
d="M0 1398v-1098q0 -300 600 -300h200q100 0 100 -200q0 -100 100 -100h100q100 0 100 100v1600q0 100 -100 100h-100q-100 0 -100 -100v-1000q0 -100 -100 -100h-200q-300 0 -300 100v1000q0 100 -110 100h-90q-100 0 -100 -102z" />
    <glyph glyph-name="Z" unicode="Z" 
d="M1100 0h-500q-600 0 -600 300v300q0 300 600 300q300 0 300 100v100q0 100 -300 100h-500q-100 0 -100 100v100q0 100 100 100h500q600 0 600 -300v-300q0 -300 -600 -300q-300 0 -300 -100v-100q0 -100 300 -100h500q100 0 100 -100v-100q0 -100 -100 -100z" />
    <glyph glyph-name="bracketleft" unicode="[" horiz-adv-x="800" 
d="M0 -100v1700q0 200 200 200q100 0 100 -100v-1900q0 -100 -100 -100q-200 0 -200 200zM200 100h100q0 -100 100 -100h100q100 0 100 -100v-100q0 -100 -100 -100h-300v400zM200 1800h300q100 0 100 -100v-100q0 -100 -100 -100h-100q-100 0 -100 -100h-100v400z" />
    <glyph glyph-name="backslash" unicode="\" horiz-adv-x="1199" 
d="M890 -292q-94 -34 -128 60l-752 2067q-34 94 60 129l94 34q94 34 128 -60l752 -2067q34 -94 -60 -129z" />
    <glyph glyph-name="bracketright" unicode="]" horiz-adv-x="800" 
d="M600 -100v1700q0 200 -200 200q-100 0 -100 -100v-1900q0 -100 100 -100q200 0 200 200zM400 100h-100q0 -100 -100 -100h-100q-100 0 -100 -100v-100q0 -100 100 -100h300v400zM400 1800h-300q-100 0 -100 -100v-100q0 -100 100 -100h100q100 0 100 -100h100v400z" />
    <glyph glyph-name="underscore" unicode="_" horiz-adv-x="1400" 
d="M1200 -199q0 -100 -100 -100h-1000q-100 0 -100 100v100q0 100 100 100h1000q100 0 100 -100v-100z" />
    <glyph glyph-name="quoteleft" unicode="&#x2018;" horiz-adv-x="499" 
d="M300 1700v-450t-100 -50q-200 0 -200 400v100q0 100 100 100h100q100 0 100 -100z" />
    <glyph glyph-name="a" unicode="a" 
d="M1100 0h-500q-600 0 -600 300v300q0 300 600 300h200q100 0 100 100v100q0 100 -200 100h-600q-100 0 -100 100v100q0 100 100 100h500q600 0 600 -300v-1100q0 -100 -100 -100zM600 600q-300 0 -300 -100v-100q0 -100 300 -100h200q100 0 100 100v100q0 100 -100 100
h-200z" />
    <glyph glyph-name="b" unicode="b" 
d="M0 100q0 -100 100 -100h500q600 0 600 300v900q0 300 -600 300h-500q-100 0 -100 -100v-1300zM400 300q-100 0 -100 100v100q0 100 100 100h400q100 0 100 -100v-100q0 -100 -300 -100h-200zM600 1200q300 0 300 -100v-100q0 -100 -100 -100h-400q-100 0 -100 100v100
q0 100 100 100h200z" />
    <glyph glyph-name="c" unicode="c" 
d="M1100 0h-500q-600 0 -600 300v900q0 300 600 300h500q100 0 100 -100v-100q0 -100 -100 -100h-500q-300 0 -300 -100v-700q0 -100 300 -100h500q100 0 100 -100v-100q0 -100 -100 -100z" />
    <glyph glyph-name="d" unicode="d" 
d="M0 100q0 -100 100 -100h500q600 0 600 300v900q0 300 -600 300h-500q-100 0 -100 -100v-1300zM400 300q-100 0 -100 100v690q0 100 100 100h200q300 0 300 -100v-690q0 -100 -300 -100h-200z" />
    <glyph glyph-name="e" unicode="e" 
d="M600 1500q600 0 600 -300v-500q0 -100 -100 -100h-700q-100 0 -100 -100v-100q0 -100 200 -100h600q100 0 100 -100v-100q0 -100 -100 -100h-500q-600 0 -600 300v900q0 300 600 300zM800 900q100 0 100 100v100q0 100 -300 100t-300 -100v-100q0 -100 100 -100h400z" />
    <glyph glyph-name="f" unicode="f" 
d="M200 0h-100q-100 0 -100 100v1100q0 300 600 300h500q100 0 100 -100v-100q0 -100 -100 -100h-500q-300 0 -300 -100v-100q0 -100 100 -100h200q100 0 100 -100v-100q0 -100 -100 -100h-200q-100 0 -100 -100v-400q0 -100 -100 -100z" />
    <glyph glyph-name="g" unicode="g" 
d="M600 1500q-600 0 -600 -300v-900q0 -300 600 -300t600 300v500q0 100 -100 100h-400q-100 0 -100 -100v-100q0 -100 100 -100h100q100 0 100 -100v-100q0 -100 -300 -100t-300 100v700q0 100 300 100h500q100 0 100 100v100q0 100 -100 100h-500z" />
    <glyph glyph-name="h" unicode="h" 
d="M100 0q-100 0 -100 100v1300q0 100 100 100h100q100 0 100 -100v-400q0 -100 100 -100h400q100 0 100 100v400q0 100 100 100h100q100 0 100 -100v-1300q0 -100 -100 -100h-100q-100 0 -100 100v400q0 100 -100 100h-400q-100 0 -100 -100v-400q0 -100 -100 -100h-100z
" />
    <glyph glyph-name="i" unicode="i" horiz-adv-x="499" 
d="M100 0q-100 0 -100 100v1300q0 100 100 100h100q100 0 100 -100v-1300q0 -100 -100 -100h-100z" />
    <glyph glyph-name="j" unicode="j" horiz-adv-x="499" 
d="M100 -300q-100 0 -100 100v1600q0 100 100 100h100q100 0 100 -100v-1600q0 -100 -100 -100h-100z" />
    <glyph glyph-name="k" unicode="k" 
d="M100 0q-100 0 -100 100v1300q0 100 100 100h100q100 0 100 -100v-400q0 -100 100 -100h400q100 0 100 300v200q0 100 100 100h100q100 0 100 -100v-325q0 -275 -150 -325q150 -50 150 -325v-325q0 -100 -100 -100h-100q-100 0 -100 100v200q0 300 -100 300h-400
q-100 0 -100 -100v-400q0 -100 -100 -100h-100z" />
    <glyph glyph-name="l" unicode="l" horiz-adv-x="1099" 
d="M200 1500h-100q-100 0 -100 -100v-1100q0 -300 600 -300h200q100 0 100 100v100q0 100 -100 100h-200q-300 0 -300 100v1000q0 100 -100 100z" />
    <glyph glyph-name="m" unicode="m" horiz-adv-x="2300" 
d="M2100 100v800q0 600 -300 600h-600q-150 0 -150 -100q0 100 -300 100h-650q-100 0 -100 -100v-1300q0 -100 100 -100h100q100 0 100 100v1000q0 100 100 100h400q100 0 100 -300v-800q0 -100 100 -100h100q100 0 100 100v800q0 300 100 300h400q100 0 100 -300v-800
q0 -100 100 -100h100q100 0 100 100z" />
    <glyph glyph-name="n" unicode="n" 
d="M100 0q-100 0 -100 100v1300q0 100 100 100h500q600 0 600 -300v-1100q0 -100 -100 -100h-100q-100 0 -100 100v1000q0 100 -300 100h-200q-100 0 -100 -100v-1000q0 -100 -100 -100h-100z" />
    <glyph glyph-name="o" unicode="o" 
d="M0 300q0 -300 600 -300t600 300v900q0 300 -600 300t-600 -300v-900zM300 400v700q0 90 300 100q300 0 300 -100v-700q0 -100 -300 -100t-300 100z" />
    <glyph glyph-name="p" unicode="p" 
d="M100 -300q-100 0 -100 100v1600q0 100 100 100h500q600 0 600 -300v-900q0 -300 -600 -300h-200q-100 0 -100 -100v-100q0 -100 -100 -100h-100zM900 1100q0 100 -300 100h-200q-100 0 -100 -100v-700q0 -100 100 -100h200q300 0 300 100v700z" />
    <glyph glyph-name="q" unicode="q" 
d="M1100 -300q100 0 100 100v1600q0 100 -100 100h-500q-600 0 -600 -300v-900q0 -300 600 -300h200q100 0 100 -100v-100q0 -100 100 -100h100zM300 1100q0 100 300 100h200q100 0 100 -100v-700q0 -100 -100 -100h-200q-300 0 -300 100v700z" />
    <glyph glyph-name="r" unicode="r" horiz-adv-x="1099" 
d="M200 0h-100q-100 0 -100 100v1100q0 300 600 300h210q100 0 100 -100v-100q0 -100 -100 -100h-210q-300 0 -300 -100v-1000q0 -100 -100 -100z" />
    <glyph glyph-name="s" unicode="s" horiz-adv-x="1499" 
d="M0 300q0 -300 600 -300t600 300v300q0 300 -600 300q-300 0 -300 100v100q0 100 300 100t300 -100t100 -100h100q100 0 100 100v100q0 300 -600 300t-600 -300v-300q0 -300 600 -300q300 0 300 -100v-100q0 -100 -300 -100t-300 100t-100 100h-100q-100 0 -100 -100v-100
z" />
    <glyph glyph-name="t" unicode="t" horiz-adv-x="1699" 
d="M0 1400v-100q0 -100 100 -100h400q100 0 100 -100v-1000q0 -100 100 -100h100q100 0 100 100v1000q0 100 100 100h400q100 0 100 100v100q0 100 -100 100h-1300q-100 0 -100 -100z" />
    <glyph glyph-name="u" unicode="u" 
d="M0 1400v-1100q0 -300 600 -300t600 300v1100q0 100 -100 100h-100q-100 0 -100 -100v-1000q0 -100 -300 -100t-300 100v1000q0 100 -100 100h-100q-100 0 -100 -100z" />
    <glyph glyph-name="v" unicode="v" 
d="M0 1400v-700q0 -700 600 -700t600 700v700q0 100 -100 100h-100q-100 0 -100 -100v-500q0 -600 -300 -600t-300 600v500q0 100 -100 100h-100q-100 0 -100 -100z" />
    <glyph glyph-name="w" unicode="w" horiz-adv-x="2300" 
d="M2100 1400v-800q0 -600 -300 -600h-600q-150 0 -150 100q0 -100 -150 -100h-600q-300 0 -300 600v800q0 100 100 100h100q100 0 100 -100v-1000q0 -100 100 -100h400q100 0 100 300v800q0 100 100 100h100q100 0 100 -100v-800q0 -300 100 -300h400q100 0 100 300v800
q0 100 100 100h100q100 0 100 -100z" />
    <glyph glyph-name="x" unicode="x" 
d="M0 200v-100q0 -100 100 -100h100q100 0 100 100q0 500 200 500h200q200 0 200 -500q0 -100 100 -100h100q100 0 100 100v200q0 400 -150 450q150 50 150 450v200q0 100 -100 100h-100q-100 0 -100 -100q0 -500 -200 -500h-200q-200 0 -200 500q0 100 -100 100h-100
q-100 0 -100 -100v-200q0 -400 150 -447q-150 -53 -150 -353v-200z" />
    <glyph glyph-name="y" unicode="y" 
d="M0 1398v-1098q0 -300 600 -300h200q100 0 100 -200q0 -100 100 -100h100q100 0 100 100v1600q0 100 -100 100h-100q-100 0 -100 -100v-1000q0 -100 -100 -100h-200q-300 0 -300 100v1000q0 100 -110 100h-90q-100 0 -100 -102z" />
    <glyph glyph-name="z" unicode="z" 
d="M1100 0h-500q-600 0 -600 300v300q0 300 600 300q300 0 300 100v100q0 100 -300 100h-500q-100 0 -100 100v100q0 100 100 100h500q600 0 600 -300v-300q0 -300 -600 -300q-300 0 -300 -100v-100q0 -100 300 -100h500q100 0 100 -100v-100q0 -100 -100 -100z" />
    <glyph glyph-name="bar" unicode="|" horiz-adv-x="1300" 
d="M500 -300q-100 0 -100 100v1900q0 100 100 100h100q100 0 100 -100v-1900q0 -100 -100 -100h-100z" />
    <glyph glyph-name="quotesingle" unicode="'" horiz-adv-x="500" 
d="M0 1700v-450t100 -50q200 0 200 400v100q0 100 -100 100h-100q-100 0 -100 -100z" />
    <glyph glyph-name="quotedblleft" unicode="&#x201c;" horiz-adv-x="900" 
d="M400 1700v-450t100 -50q200 0 200 400v100q0 100 -100 100h-100q-100 0 -100 -100zM0 1700v-450t100 -50q200 0 200 400v100q0 100 -100 100h-100q-100 0 -100 -100z" />
    <glyph glyph-name="guillemotleft" unicode="&#xab;" horiz-adv-x="1800" 
d="M1555 1454q71 -71 0 -142l-707 -707q-71 -71 -142 0l-70 71q-71 71 0 141l707 707q70 71 141 0zM1488 -31q-71 -71 -142 0l-707 707q-71 71 0 142l71 70q71 71 141 0l707 -707q71 -70 0 -141zM953 1454q71 -71 0 -142l-707 -707q-71 -71 -142 0l-70 71q-71 71 0 141
l707 707q70 71 141 0zM886 -31q-71 -71 -142 0l-707 707q-71 71 0 142l71 70q71 71 141 0l707 -707q71 -70 0 -141z" />
    <glyph glyph-name="guilsinglleft" unicode="&#x2039;" horiz-adv-x="1200" 
d="M955 1454q71 -71 0 -142l-707 -707q-71 -71 -142 0l-70 71q-71 71 0 141l707 707q70 71 141 0zM888 -31q-71 -71 -142 0l-707 707q-71 71 0 142l71 70q71 71 141 0l707 -707q71 -70 0 -141z" />
    <glyph glyph-name="guilsinglright" unicode="&#x203a;" horiz-adv-x="1200" 
d="M37 1454q-71 -71 0 -142l707 -707q71 -71 142 0l70 71q71 71 0 141l-707 707q-70 71 -141 0zM104 -31q71 -71 142 0l707 707q71 71 0 142l-71 70q-71 71 -141 0l-707 -707q-71 -70 0 -141z" />
    <glyph glyph-name="quotedblbase" unicode="&#x201e;" horiz-adv-x="900" 
d="M300 -200v450t-100 50q-200 0 -200 -400v-100q0 -100 100 -100h100q100 0 100 100zM700 -200v450t-100 50q-200 0 -200 -400v-100q0 -100 100 -100h100q100 0 100 100z" />
    <glyph glyph-name="quotedblright" unicode="&#x201d;" horiz-adv-x="900" 
d="M400 1700v-450t100 -50q200 0 200 400v100q0 100 -100 100h-100q-100 0 -100 -100zM0 1700v-450t100 -50q200 0 200 400v100q0 100 -100 100h-100q-100 0 -100 -100z" />
    <glyph glyph-name="guillemotright" unicode="&#xbb;" horiz-adv-x="1800" 
d="M37 1454q-71 -71 0 -142l707 -707q71 -71 142 0l70 71q71 71 0 141l-707 707q-70 71 -141 0zM104 -31q71 -71 142 0l707 707q71 71 0 142l-71 70q-71 71 -141 0l-707 -707q-71 -70 0 -141zM639 1454q-71 -71 0 -142l707 -707q71 -71 142 0l70 71q71 71 0 141l-707 707
q-70 71 -141 0zM706 -31q71 -71 142 0l707 707q71 71 0 142l-71 70q-71 71 -141 0l-707 -707q-71 -70 0 -141z" />
    <glyph glyph-name="endash" unicode="&#x2014;" horiz-adv-x="1800" 
d="M1600 701q0 -100 -100 -100h-1400q-100 0 -100 100v100q0 100 100 100h1400q100 0 100 -100v-100z" />
    <glyph glyph-name="AE" unicode="&#xc6;" horiz-adv-x="2300" 
d="M100 0q-100 0 -100 100v800q0 600 300 600h600q300 0 300 -600v-800q0 -100 -100 -100h-100q-100 0 -100 100v400q0 100 -100 100h-400q-100 0 -100 -100v-400q0 -100 -100 -100h-100zM900 900q0 300 -100 300h-400q-100 0 -100 -300h600zM2000 0h-1000q-100 0 -100 100
v1400h600h500q100 0 100 -100v-100q0 -100 -100 -100h-500q-300 0 -300 -100v-100q0 -100 100 -100h200q100 0 100 -100v-100q0 -100 -100 -100h-200q-100 0 -100 -100v-100q0 -100 300 -100h500q100 0 100 -100v-100q0 -100 -100 -100z" />
    <glyph glyph-name="Oslash" unicode="&#xd8;" 
d="M0 300q0 -300 600 -300t600 300v900q0 300 -600 300t-600 -300v-900zM300 400v690q0 100 300 110q300 0 300 -100v-700q0 -100 -300 -100t-300 100zM237 95q83 -55 138 29l711 1088q54 84 -29 139l-84 55q-84 54 -139 -30l-710 -1088q-55 -84 29 -138z" />
    <glyph glyph-name="ae" unicode="&#xe6;" horiz-adv-x="2300" 
d="M1050 0h-450q-600 0 -600 300v300q0 300 600 300h200q100 0 100 100v100q0 100 -200 100h-600q-100 0 -100 100v100q0 100 100 100h500q450 0 450 -100v-1400zM600 600q-300 0 -300 -100v-100q0 -100 300 -100h200q100 0 100 100v100q0 100 -100 100h-200zM1500 1500
q600 0 600 -300v-500q0 -100 -100 -100h-700q-100 0 -100 -100v-100q0 -100 200 -100h600q100 0 100 -100v-100q0 -100 -100 -100h-950v1400q0 100 450 100zM1700 900q100 0 100 100v100q0 100 -300 100t-300 -100v-100q0 -100 100 -100h400z" />
    <glyph glyph-name="oslash" unicode="&#xf8;" 
d="M0 300q0 -300 600 -300t600 300v900q0 300 -600 300t-600 -300v-900zM300 400v690q0 100 300 110q300 0 300 -100v-700q0 -100 -300 -100t-300 100zM237 95q83 -55 138 29l711 1088q54 84 -29 139l-84 55q-84 54 -139 -30l-710 -1088q-55 -84 29 -138z" />
    <glyph glyph-name="oe" unicode="&#x153;" horiz-adv-x="2585" 
d="M2068 586h394v-205q0 -235 -126.5 -314t-275.5 -79h-532q-108 0 -168 43t-78 71q-19 -28 -81.5 -71t-172.5 -43h-504q-181 0 -291 109t-110 292v1041q0 177 103 274.5t282 97.5h520q128 0 185 -44.5t69 -74.5q20 30 83 74.5t175 44.5h520q182 0 292 -102t110 -283v-622
h-971v-467h577v258zM1090 328v1134h-545v-1134h545zM2068 1090v401h-577v-401h577z" />
    <glyph glyph-name="copyright" unicode="&#xa9;" horiz-adv-x="2699" 
d="M1400 0h-500q-600 0 -600 300v900q0 300 600 300h500q100 0 100 -100v-100q0 -100 -100 -100h-500q-300 0 -300 -100v-700q0 -100 300 -100h500q100 0 100 -100v-100q0 -100 -100 -100zM100 1100v-700q0 -600 850 -600t850 600v700q0 600 -850 600t-850 -600zM950 2000
q1150 0 1150 -900v-700q0 -900 -1150 -900t-1150 900v700q0 900 1150 900z" />
    <glyph glyph-name="divide" unicode="&#xf7;" horiz-adv-x="1400" 
d="M1200 701q0 -100 -100 -100h-1000q-100 0 -100 100v100q0 100 100 100h1000q100 0 100 -100v-100zM450 1200v-100q0 -100 100 -100h100q100 0 100 100v100q0 100 -100 100h-100q-100 0 -100 -100zM450 400v-100q0 -100 100 -100h100q100 0 100 100v100q0 100 -100 100
h-100q-100 0 -100 -100z" />
    <glyph glyph-name="minus" unicode="&#x2212;" horiz-adv-x="1400" 
d="M1200 701q0 -100 -100 -100h-1000q-100 0 -100 100v100q0 100 100 100h1000q100 0 100 -100v-100z" />
    <glyph glyph-name="registered" unicode="&#xae;" horiz-adv-x="2699" 
d="M400 0q-100 0 -100 100v1300q0 100 100 100h500q600 0 600 -500q0 -250 -100 -300q100 0 100 -600q0 -100 -100 -100h-100q-100 0 -100 100q0 500 -200 500h-300q-100 0 -100 -100v-400q0 -100 -100 -100h-100zM1200 1000q0 200 -300 200h-200q-100 0 -100 -100v-100
q0 -100 100 -100h400q100 0 100 100zM50 1100v-700q0 -600 850 -600t850 600v700q0 600 -850 600t-850 -600zM900 2000q1150 0 1150 -900v-700q0 -900 -1150 -900t-1150 900v700q0 900 1150 900z" />
    <glyph glyph-name="trademark" unicode="&#x2122;" horiz-adv-x="2050" 
d="M0 1450v-50q0 -50 50 -50h200q50 0 50 -50v-500q0 -50 50 -50h50q50 0 50 50v500q0 50 50 50h200q50 0 50 50v50q0 50 -50 50h-650q-50 0 -50 -50zM1850 800v400q0 300 -150 300h-300q-75 0 -75 -50q0 50 -150 50h-325q-50 0 -50 -50v-650q0 -50 50 -50h50q50 0 50 50
v500q0 50 50 50h200q50 0 50 -150v-400q0 -50 50 -50h50q50 0 50 50v400q0 150 50 150h200q50 0 50 -150v-400q0 -50 50 -50h50q50 0 50 50z" />
    <glyph glyph-name="nonbreakingspace" unicode="&#xa0;" horiz-adv-x="1024" 
 />
    <glyph glyph-name="aring" unicode="&#xe5;" horiz-adv-x="1400" 
d="M1100 0h-500q-600 0 -600 300v300q0 300 600 300h200q100 0 100 100v100q0 100 -200 100h-600q-100 0 -100 100v100q0 100 100 100h500q600 0 600 -300v-1100q0 -100 -100 -100zM600 600q-300 0 -300 -100v-100q0 -100 300 -100h200q100 0 100 100v100q0 100 -100 100
h-200zM500 1900v-100q0 -100 100 -100h100q100 0 100 100v100q0 100 -100 100h-100q-100 0 -100 -100z" />
    <glyph glyph-name="Aring" unicode="&#xc5;" horiz-adv-x="1400" 
d="M100 0q-100 0 -100 100v800q0 600 300 600h600q300 0 300 -600v-800q0 -100 -100 -100h-100q-100 0 -100 100v400q0 100 -100 100h-400q-100 0 -100 -100v-400q0 -100 -100 -100h-100zM900 900q0 300 -100 300h-400q-100 0 -100 -300h600zM450 1800v-100q0 -100 100 -100
h100q100 0 100 100v100q0 100 -100 100h-100q-100 0 -100 -100z" />
  </font>
</defs>
</svg>
